%TF.GenerationSoftware,KiCad,Pcbnew,9.0.1*%
%TF.CreationDate,2025-08-10T20:13:13+01:00*%
%TF.ProjectId,fm-radio,666d2d72-6164-4696-9f2e-6b696361645f,rev?*%
%TF.SameCoordinates,Original*%
%TF.FileFunction,Soldermask,Bot*%
%TF.FilePolarity,Negative*%
%FSLAX46Y46*%
G04 Gerber Fmt 4.6, Leading zero omitted, Abs format (unit mm)*
G04 Created by KiCad (PCBNEW 9.0.1) date 2025-08-10 20:13:13*
%MOMM*%
%LPD*%
G01*
G04 APERTURE LIST*
G04 Aperture macros list*
%AMRoundRect*
0 Rectangle with rounded corners*
0 $1 Rounding radius*
0 $2 $3 $4 $5 $6 $7 $8 $9 X,Y pos of 4 corners*
0 Add a 4 corners polygon primitive as box body*
4,1,4,$2,$3,$4,$5,$6,$7,$8,$9,$2,$3,0*
0 Add four circle primitives for the rounded corners*
1,1,$1+$1,$2,$3*
1,1,$1+$1,$4,$5*
1,1,$1+$1,$6,$7*
1,1,$1+$1,$8,$9*
0 Add four rect primitives between the rounded corners*
20,1,$1+$1,$2,$3,$4,$5,0*
20,1,$1+$1,$4,$5,$6,$7,0*
20,1,$1+$1,$6,$7,$8,$9,0*
20,1,$1+$1,$8,$9,$2,$3,0*%
G04 Aperture macros list end*
%ADD10C,0.150000*%
%ADD11R,1.800000X1.800000*%
%ADD12C,1.800000*%
%ADD13C,1.779000*%
%ADD14RoundRect,0.250000X-0.550000X-0.550000X0.550000X-0.550000X0.550000X0.550000X-0.550000X0.550000X0*%
%ADD15C,1.600000*%
%ADD16C,2.000000*%
%ADD17RoundRect,0.250000X-1.050000X1.050000X-1.050000X-1.050000X1.050000X-1.050000X1.050000X1.050000X0*%
%ADD18C,2.600000*%
%ADD19O,1.600000X1.600000*%
%ADD20R,1.050000X1.500000*%
%ADD21O,1.050000X1.500000*%
%ADD22R,1.600000X1.600000*%
%ADD23RoundRect,0.246063X0.503937X0.503937X-0.503937X0.503937X-0.503937X-0.503937X0.503937X-0.503937X0*%
G04 APERTURE END LIST*
D10*
X76734649Y-73869819D02*
X76734649Y-72869819D01*
X76734649Y-73822200D02*
X76829887Y-73869819D01*
X76829887Y-73869819D02*
X77020363Y-73869819D01*
X77020363Y-73869819D02*
X77115601Y-73822200D01*
X77115601Y-73822200D02*
X77163220Y-73774580D01*
X77163220Y-73774580D02*
X77210839Y-73679342D01*
X77210839Y-73679342D02*
X77210839Y-73393628D01*
X77210839Y-73393628D02*
X77163220Y-73298390D01*
X77163220Y-73298390D02*
X77115601Y-73250771D01*
X77115601Y-73250771D02*
X77020363Y-73203152D01*
X77020363Y-73203152D02*
X76829887Y-73203152D01*
X76829887Y-73203152D02*
X76734649Y-73250771D01*
X75877506Y-73822200D02*
X75972744Y-73869819D01*
X75972744Y-73869819D02*
X76163220Y-73869819D01*
X76163220Y-73869819D02*
X76258458Y-73822200D01*
X76258458Y-73822200D02*
X76306077Y-73726961D01*
X76306077Y-73726961D02*
X76306077Y-73346009D01*
X76306077Y-73346009D02*
X76258458Y-73250771D01*
X76258458Y-73250771D02*
X76163220Y-73203152D01*
X76163220Y-73203152D02*
X75972744Y-73203152D01*
X75972744Y-73203152D02*
X75877506Y-73250771D01*
X75877506Y-73250771D02*
X75829887Y-73346009D01*
X75829887Y-73346009D02*
X75829887Y-73441247D01*
X75829887Y-73441247D02*
X76306077Y-73536485D01*
X75448934Y-73822200D02*
X75353696Y-73869819D01*
X75353696Y-73869819D02*
X75163220Y-73869819D01*
X75163220Y-73869819D02*
X75067982Y-73822200D01*
X75067982Y-73822200D02*
X75020363Y-73726961D01*
X75020363Y-73726961D02*
X75020363Y-73679342D01*
X75020363Y-73679342D02*
X75067982Y-73584104D01*
X75067982Y-73584104D02*
X75163220Y-73536485D01*
X75163220Y-73536485D02*
X75306077Y-73536485D01*
X75306077Y-73536485D02*
X75401315Y-73488866D01*
X75401315Y-73488866D02*
X75448934Y-73393628D01*
X75448934Y-73393628D02*
X75448934Y-73346009D01*
X75448934Y-73346009D02*
X75401315Y-73250771D01*
X75401315Y-73250771D02*
X75306077Y-73203152D01*
X75306077Y-73203152D02*
X75163220Y-73203152D01*
X75163220Y-73203152D02*
X75067982Y-73250771D01*
X74591791Y-73869819D02*
X74591791Y-73203152D01*
X74591791Y-72869819D02*
X74639410Y-72917438D01*
X74639410Y-72917438D02*
X74591791Y-72965057D01*
X74591791Y-72965057D02*
X74544172Y-72917438D01*
X74544172Y-72917438D02*
X74591791Y-72869819D01*
X74591791Y-72869819D02*
X74591791Y-72965057D01*
X73687030Y-73203152D02*
X73687030Y-74012676D01*
X73687030Y-74012676D02*
X73734649Y-74107914D01*
X73734649Y-74107914D02*
X73782268Y-74155533D01*
X73782268Y-74155533D02*
X73877506Y-74203152D01*
X73877506Y-74203152D02*
X74020363Y-74203152D01*
X74020363Y-74203152D02*
X74115601Y-74155533D01*
X73687030Y-73822200D02*
X73782268Y-73869819D01*
X73782268Y-73869819D02*
X73972744Y-73869819D01*
X73972744Y-73869819D02*
X74067982Y-73822200D01*
X74067982Y-73822200D02*
X74115601Y-73774580D01*
X74115601Y-73774580D02*
X74163220Y-73679342D01*
X74163220Y-73679342D02*
X74163220Y-73393628D01*
X74163220Y-73393628D02*
X74115601Y-73298390D01*
X74115601Y-73298390D02*
X74067982Y-73250771D01*
X74067982Y-73250771D02*
X73972744Y-73203152D01*
X73972744Y-73203152D02*
X73782268Y-73203152D01*
X73782268Y-73203152D02*
X73687030Y-73250771D01*
X73210839Y-73203152D02*
X73210839Y-73869819D01*
X73210839Y-73298390D02*
X73163220Y-73250771D01*
X73163220Y-73250771D02*
X73067982Y-73203152D01*
X73067982Y-73203152D02*
X72925125Y-73203152D01*
X72925125Y-73203152D02*
X72829887Y-73250771D01*
X72829887Y-73250771D02*
X72782268Y-73346009D01*
X72782268Y-73346009D02*
X72782268Y-73869819D01*
X71925125Y-73822200D02*
X72020363Y-73869819D01*
X72020363Y-73869819D02*
X72210839Y-73869819D01*
X72210839Y-73869819D02*
X72306077Y-73822200D01*
X72306077Y-73822200D02*
X72353696Y-73726961D01*
X72353696Y-73726961D02*
X72353696Y-73346009D01*
X72353696Y-73346009D02*
X72306077Y-73250771D01*
X72306077Y-73250771D02*
X72210839Y-73203152D01*
X72210839Y-73203152D02*
X72020363Y-73203152D01*
X72020363Y-73203152D02*
X71925125Y-73250771D01*
X71925125Y-73250771D02*
X71877506Y-73346009D01*
X71877506Y-73346009D02*
X71877506Y-73441247D01*
X71877506Y-73441247D02*
X72353696Y-73536485D01*
X71020363Y-73869819D02*
X71020363Y-72869819D01*
X71020363Y-73822200D02*
X71115601Y-73869819D01*
X71115601Y-73869819D02*
X71306077Y-73869819D01*
X71306077Y-73869819D02*
X71401315Y-73822200D01*
X71401315Y-73822200D02*
X71448934Y-73774580D01*
X71448934Y-73774580D02*
X71496553Y-73679342D01*
X71496553Y-73679342D02*
X71496553Y-73393628D01*
X71496553Y-73393628D02*
X71448934Y-73298390D01*
X71448934Y-73298390D02*
X71401315Y-73250771D01*
X71401315Y-73250771D02*
X71306077Y-73203152D01*
X71306077Y-73203152D02*
X71115601Y-73203152D01*
X71115601Y-73203152D02*
X71020363Y-73250771D01*
X69782267Y-73869819D02*
X69782267Y-72869819D01*
X69782267Y-73250771D02*
X69687029Y-73203152D01*
X69687029Y-73203152D02*
X69496553Y-73203152D01*
X69496553Y-73203152D02*
X69401315Y-73250771D01*
X69401315Y-73250771D02*
X69353696Y-73298390D01*
X69353696Y-73298390D02*
X69306077Y-73393628D01*
X69306077Y-73393628D02*
X69306077Y-73679342D01*
X69306077Y-73679342D02*
X69353696Y-73774580D01*
X69353696Y-73774580D02*
X69401315Y-73822200D01*
X69401315Y-73822200D02*
X69496553Y-73869819D01*
X69496553Y-73869819D02*
X69687029Y-73869819D01*
X69687029Y-73869819D02*
X69782267Y-73822200D01*
X68972743Y-73203152D02*
X68734648Y-73869819D01*
X68496553Y-73203152D02*
X68734648Y-73869819D01*
X68734648Y-73869819D02*
X68829886Y-74107914D01*
X68829886Y-74107914D02*
X68877505Y-74155533D01*
X68877505Y-74155533D02*
X68972743Y-74203152D01*
X67020362Y-73346009D02*
X66877505Y-73393628D01*
X66877505Y-73393628D02*
X66829886Y-73441247D01*
X66829886Y-73441247D02*
X66782267Y-73536485D01*
X66782267Y-73536485D02*
X66782267Y-73679342D01*
X66782267Y-73679342D02*
X66829886Y-73774580D01*
X66829886Y-73774580D02*
X66877505Y-73822200D01*
X66877505Y-73822200D02*
X66972743Y-73869819D01*
X66972743Y-73869819D02*
X67353695Y-73869819D01*
X67353695Y-73869819D02*
X67353695Y-72869819D01*
X67353695Y-72869819D02*
X67020362Y-72869819D01*
X67020362Y-72869819D02*
X66925124Y-72917438D01*
X66925124Y-72917438D02*
X66877505Y-72965057D01*
X66877505Y-72965057D02*
X66829886Y-73060295D01*
X66829886Y-73060295D02*
X66829886Y-73155533D01*
X66829886Y-73155533D02*
X66877505Y-73250771D01*
X66877505Y-73250771D02*
X66925124Y-73298390D01*
X66925124Y-73298390D02*
X67020362Y-73346009D01*
X67020362Y-73346009D02*
X67353695Y-73346009D01*
X66353695Y-73774580D02*
X66306076Y-73822200D01*
X66306076Y-73822200D02*
X66353695Y-73869819D01*
X66353695Y-73869819D02*
X66401314Y-73822200D01*
X66401314Y-73822200D02*
X66353695Y-73774580D01*
X66353695Y-73774580D02*
X66353695Y-73869819D01*
X65877505Y-73869819D02*
X65877505Y-72869819D01*
X65877505Y-73346009D02*
X65306077Y-73346009D01*
X65306077Y-73869819D02*
X65306077Y-72869819D01*
D11*
%TO.C,RV1*%
X89000000Y-73500000D03*
D12*
X91500000Y-73500000D03*
X94000000Y-73500000D03*
%TD*%
D13*
%TO.C,LS1*%
X130500000Y-62700000D03*
X130500000Y-70300000D03*
%TD*%
D14*
%TO.C,U1*%
X99195000Y-66880000D03*
D15*
X99195000Y-69420000D03*
X99195000Y-71960000D03*
X99195000Y-74500000D03*
X106815000Y-74500000D03*
X106815000Y-71960000D03*
X106815000Y-69420000D03*
X106815000Y-66880000D03*
%TD*%
D16*
%TO.C,L1*%
X72260000Y-61500000D03*
X87500000Y-61500000D03*
%TD*%
D17*
%TO.C,J1*%
X63827500Y-62000000D03*
D18*
X63827500Y-67080000D03*
%TD*%
D15*
%TO.C,R2*%
X119000000Y-68000000D03*
D19*
X119000000Y-75620000D03*
%TD*%
D20*
%TO.C,Q2*%
X94040000Y-67000000D03*
D21*
X92770000Y-67000000D03*
X91500000Y-67000000D03*
%TD*%
D20*
%TO.C,Q1*%
X91460000Y-61500000D03*
D21*
X92730000Y-61500000D03*
X94000000Y-61500000D03*
%TD*%
D15*
%TO.C,C7*%
X112500000Y-59250000D03*
X112500000Y-61750000D03*
%TD*%
%TO.C,C6*%
X100250000Y-61500000D03*
X97750000Y-61500000D03*
%TD*%
D22*
%TO.C,C5*%
X113500000Y-74500000D03*
D15*
X113500000Y-72000000D03*
%TD*%
D22*
%TO.C,C4*%
X104500000Y-61000000D03*
D15*
X107000000Y-61000000D03*
%TD*%
D22*
%TO.C,C2*%
X118000000Y-61000000D03*
D15*
X120500000Y-61000000D03*
%TD*%
%TO.C,C1*%
X111250000Y-66500000D03*
X113750000Y-66500000D03*
%TD*%
D23*
%TO.C,AE1*%
X74000000Y-69000000D03*
%TD*%
M02*
