%TF.GenerationSoftware,KiCad,Pcbnew,9.0.1*%
%TF.CreationDate,2025-08-10T20:13:13+01:00*%
%TF.ProjectId,fm-radio,666d2d72-6164-4696-9f2e-6b696361645f,rev?*%
%TF.SameCoordinates,Original*%
%TF.FileFunction,Soldermask,Top*%
%TF.FilePolarity,Negative*%
%FSLAX46Y46*%
G04 Gerber Fmt 4.6, Leading zero omitted, Abs format (unit mm)*
G04 Created by KiCad (PCBNEW 9.0.1) date 2025-08-10 20:13:13*
%MOMM*%
%LPD*%
G01*
G04 APERTURE LIST*
G04 Aperture macros list*
%AMRoundRect*
0 Rectangle with rounded corners*
0 $1 Rounding radius*
0 $2 $3 $4 $5 $6 $7 $8 $9 X,Y pos of 4 corners*
0 Add a 4 corners polygon primitive as box body*
4,1,4,$2,$3,$4,$5,$6,$7,$8,$9,$2,$3,0*
0 Add four circle primitives for the rounded corners*
1,1,$1+$1,$2,$3*
1,1,$1+$1,$4,$5*
1,1,$1+$1,$6,$7*
1,1,$1+$1,$8,$9*
0 Add four rect primitives between the rounded corners*
20,1,$1+$1,$2,$3,$4,$5,0*
20,1,$1+$1,$4,$5,$6,$7,0*
20,1,$1+$1,$6,$7,$8,$9,0*
20,1,$1+$1,$8,$9,$2,$3,0*%
G04 Aperture macros list end*
%ADD10R,1.800000X1.800000*%
%ADD11C,1.800000*%
%ADD12R,2.300000X1.600000*%
%ADD13C,1.779000*%
%ADD14RoundRect,0.250000X-0.550000X-0.550000X0.550000X-0.550000X0.550000X0.550000X-0.550000X0.550000X0*%
%ADD15C,1.600000*%
%ADD16C,2.000000*%
%ADD17RoundRect,0.250000X-1.050000X1.050000X-1.050000X-1.050000X1.050000X-1.050000X1.050000X1.050000X0*%
%ADD18C,2.600000*%
%ADD19O,1.600000X1.600000*%
%ADD20R,1.050000X1.500000*%
%ADD21O,1.050000X1.500000*%
%ADD22R,1.600000X1.600000*%
%ADD23RoundRect,0.246063X0.503937X0.503937X-0.503937X0.503937X-0.503937X-0.503937X0.503937X-0.503937X0*%
G04 APERTURE END LIST*
D10*
%TO.C,RV1*%
X89000000Y-73500000D03*
D11*
X91500000Y-73500000D03*
X94000000Y-73500000D03*
%TD*%
D12*
%TO.C,C3*%
X80300000Y-68500000D03*
X85000000Y-68500000D03*
%TD*%
D13*
%TO.C,LS1*%
X130500000Y-62700000D03*
X130500000Y-70300000D03*
%TD*%
D14*
%TO.C,U1*%
X99195000Y-66880000D03*
D15*
X99195000Y-69420000D03*
X99195000Y-71960000D03*
X99195000Y-74500000D03*
X106815000Y-74500000D03*
X106815000Y-71960000D03*
X106815000Y-69420000D03*
X106815000Y-66880000D03*
%TD*%
D16*
%TO.C,L1*%
X72260000Y-61500000D03*
X87500000Y-61500000D03*
%TD*%
D17*
%TO.C,J1*%
X63827500Y-62000000D03*
D18*
X63827500Y-67080000D03*
%TD*%
D15*
%TO.C,R2*%
X119000000Y-68000000D03*
D19*
X119000000Y-75620000D03*
%TD*%
D20*
%TO.C,Q2*%
X94040000Y-67000000D03*
D21*
X92770000Y-67000000D03*
X91500000Y-67000000D03*
%TD*%
D20*
%TO.C,Q1*%
X91460000Y-61500000D03*
D21*
X92730000Y-61500000D03*
X94000000Y-61500000D03*
%TD*%
D15*
%TO.C,C7*%
X112500000Y-59250000D03*
X112500000Y-61750000D03*
%TD*%
%TO.C,C6*%
X100250000Y-61500000D03*
X97750000Y-61500000D03*
%TD*%
D22*
%TO.C,C5*%
X113500000Y-74500000D03*
D15*
X113500000Y-72000000D03*
%TD*%
D22*
%TO.C,C4*%
X104500000Y-61000000D03*
D15*
X107000000Y-61000000D03*
%TD*%
D22*
%TO.C,C2*%
X118000000Y-61000000D03*
D15*
X120500000Y-61000000D03*
%TD*%
%TO.C,C1*%
X111250000Y-66500000D03*
X113750000Y-66500000D03*
%TD*%
D23*
%TO.C,AE1*%
X74000000Y-69000000D03*
%TD*%
M02*
