%TF.GenerationSoftware,KiCad,Pcbnew,9.0.1*%
%TF.CreationDate,2025-08-10T20:13:12+01:00*%
%TF.ProjectId,fm-radio,666d2d72-6164-4696-9f2e-6b696361645f,rev?*%
%TF.SameCoordinates,Original*%
%TF.FileFunction,Copper,L1,Top*%
%TF.FilePolarity,Positive*%
%FSLAX46Y46*%
G04 Gerber Fmt 4.6, Leading zero omitted, Abs format (unit mm)*
G04 Created by KiCad (PCBNEW 9.0.1) date 2025-08-10 20:13:12*
%MOMM*%
%LPD*%
G01*
G04 APERTURE LIST*
G04 Aperture macros list*
%AMRoundRect*
0 Rectangle with rounded corners*
0 $1 Rounding radius*
0 $2 $3 $4 $5 $6 $7 $8 $9 X,Y pos of 4 corners*
0 Add a 4 corners polygon primitive as box body*
4,1,4,$2,$3,$4,$5,$6,$7,$8,$9,$2,$3,0*
0 Add four circle primitives for the rounded corners*
1,1,$1+$1,$2,$3*
1,1,$1+$1,$4,$5*
1,1,$1+$1,$6,$7*
1,1,$1+$1,$8,$9*
0 Add four rect primitives between the rounded corners*
20,1,$1+$1,$2,$3,$4,$5,0*
20,1,$1+$1,$4,$5,$6,$7,0*
20,1,$1+$1,$6,$7,$8,$9,0*
20,1,$1+$1,$8,$9,$2,$3,0*%
G04 Aperture macros list end*
%TA.AperFunction,ComponentPad*%
%ADD10R,1.800000X1.800000*%
%TD*%
%TA.AperFunction,ComponentPad*%
%ADD11C,1.800000*%
%TD*%
%TA.AperFunction,SMDPad,CuDef*%
%ADD12R,2.300000X1.600000*%
%TD*%
%TA.AperFunction,ComponentPad*%
%ADD13C,1.575000*%
%TD*%
%TA.AperFunction,ComponentPad*%
%ADD14RoundRect,0.250000X-0.550000X-0.550000X0.550000X-0.550000X0.550000X0.550000X-0.550000X0.550000X0*%
%TD*%
%TA.AperFunction,ComponentPad*%
%ADD15C,1.600000*%
%TD*%
%TA.AperFunction,ComponentPad*%
%ADD16C,2.000000*%
%TD*%
%TA.AperFunction,ComponentPad*%
%ADD17RoundRect,0.250000X-1.050000X1.050000X-1.050000X-1.050000X1.050000X-1.050000X1.050000X1.050000X0*%
%TD*%
%TA.AperFunction,ComponentPad*%
%ADD18C,2.600000*%
%TD*%
%TA.AperFunction,ComponentPad*%
%ADD19O,1.600000X1.600000*%
%TD*%
%TA.AperFunction,ComponentPad*%
%ADD20R,1.050000X1.500000*%
%TD*%
%TA.AperFunction,ComponentPad*%
%ADD21O,1.050000X1.500000*%
%TD*%
%TA.AperFunction,ComponentPad*%
%ADD22R,1.600000X1.600000*%
%TD*%
%TA.AperFunction,ComponentPad*%
%ADD23RoundRect,0.246063X0.503937X0.503937X-0.503937X0.503937X-0.503937X-0.503937X0.503937X-0.503937X0*%
%TD*%
%TA.AperFunction,ViaPad*%
%ADD24C,0.600000*%
%TD*%
G04 APERTURE END LIST*
D10*
%TO.P,RV1,1,1*%
%TO.N,GND*%
X89000000Y-73500000D03*
D11*
%TO.P,RV1,2,2*%
%TO.N,Net-(C6-Pad2)*%
X91500000Y-73500000D03*
%TO.P,RV1,3,3*%
%TO.N,Net-(U1-+)*%
X94000000Y-73500000D03*
%TD*%
D12*
%TO.P,C3,1*%
%TO.N,+9V*%
X80300000Y-68500000D03*
%TO.P,C3,2*%
%TO.N,GND*%
X85000000Y-68500000D03*
%TD*%
D13*
%TO.P,LS1,1,1*%
%TO.N,Net-(C2-Pad2)*%
X130500000Y-62700000D03*
%TO.P,LS1,2,2*%
%TO.N,GND*%
X130500000Y-70300000D03*
%TD*%
D14*
%TO.P,U1,1,GAIN*%
%TO.N,Net-(C4-Pad1)*%
X99195000Y-66880000D03*
D15*
%TO.P,U1,2,-*%
%TO.N,GND*%
X99195000Y-69420000D03*
%TO.P,U1,3,+*%
%TO.N,Net-(U1-+)*%
X99195000Y-71960000D03*
%TO.P,U1,4,GND*%
%TO.N,GND*%
X99195000Y-74500000D03*
%TO.P,U1,5*%
%TO.N,Net-(C1-Pad1)*%
X106815000Y-74500000D03*
%TO.P,U1,6,V+*%
%TO.N,+9V*%
X106815000Y-71960000D03*
%TO.P,U1,7,BYPASS*%
%TO.N,Net-(U1-BYPASS)*%
X106815000Y-69420000D03*
%TO.P,U1,8,GAIN*%
%TO.N,Net-(C4-Pad2)*%
X106815000Y-66880000D03*
%TD*%
D16*
%TO.P,L1,1,1*%
%TO.N,+9V*%
X72260000Y-61500000D03*
%TO.P,L1,2,2*%
%TO.N,Net-(Q1-B)*%
X87500000Y-61500000D03*
%TD*%
D17*
%TO.P,J1,1,Pin_1*%
%TO.N,GND*%
X63827500Y-62000000D03*
D18*
%TO.P,J1,2,Pin_2*%
%TO.N,+9V*%
X63827500Y-67080000D03*
%TD*%
D15*
%TO.P,R2,1*%
%TO.N,Net-(C1-Pad2)*%
X119000000Y-68000000D03*
D19*
%TO.P,R2,2*%
%TO.N,GND*%
X119000000Y-75620000D03*
%TD*%
D20*
%TO.P,Q2,1,C*%
%TO.N,Net-(Q1-B)*%
X94040000Y-67000000D03*
D21*
%TO.P,Q2,2,B*%
%TO.N,+9V*%
X92770000Y-67000000D03*
%TO.P,Q2,3,E*%
%TO.N,GND*%
X91500000Y-67000000D03*
%TD*%
D20*
%TO.P,Q1,1,C*%
%TO.N,+9V*%
X91460000Y-61500000D03*
D21*
%TO.P,Q1,2,B*%
%TO.N,Net-(Q1-B)*%
X92730000Y-61500000D03*
%TO.P,Q1,3,E*%
%TO.N,GND*%
X94000000Y-61500000D03*
%TD*%
D15*
%TO.P,C7,1*%
%TO.N,GND*%
X112500000Y-59250000D03*
%TO.P,C7,2*%
%TO.N,Net-(U1-BYPASS)*%
X112500000Y-61750000D03*
%TD*%
%TO.P,C6,1*%
%TO.N,+9V*%
X100250000Y-61500000D03*
%TO.P,C6,2*%
%TO.N,Net-(C6-Pad2)*%
X97750000Y-61500000D03*
%TD*%
D22*
%TO.P,C5,1*%
%TO.N,+9V*%
X113500000Y-74500000D03*
D15*
%TO.P,C5,2*%
%TO.N,GND*%
X113500000Y-72000000D03*
%TD*%
D22*
%TO.P,C4,1*%
%TO.N,Net-(C4-Pad1)*%
X104500000Y-61000000D03*
D15*
%TO.P,C4,2*%
%TO.N,Net-(C4-Pad2)*%
X107000000Y-61000000D03*
%TD*%
D22*
%TO.P,C2,1*%
%TO.N,Net-(C1-Pad1)*%
X118000000Y-61000000D03*
D15*
%TO.P,C2,2*%
%TO.N,Net-(C2-Pad2)*%
X120500000Y-61000000D03*
%TD*%
%TO.P,C1,1*%
%TO.N,Net-(C1-Pad1)*%
X111250000Y-66500000D03*
%TO.P,C1,2*%
%TO.N,Net-(C1-Pad2)*%
X113750000Y-66500000D03*
%TD*%
D23*
%TO.P,AE1,1,A*%
%TO.N,+9V*%
X74000000Y-69000000D03*
%TD*%
D24*
%TO.N,+9V*%
X80500000Y-68500000D03*
%TO.N,GND*%
X85000000Y-68500000D03*
%TD*%
M02*
